<mxfile host="app.diagrams.net" modified="2022-07-29T04:38:59.824Z" agent="5.0 (Macintosh; Intel Mac OS X 10_15_7) AppleWebKit/537.36 (KHTML, like Gecko) Chrome/103.0.0.0 Safari/537.36" etag="M7U7NrGDWNu8q3SzG4pe" version="20.2.2" type="github">
  <diagram id="_xNLWEPuxwHmrUn2T3Lk" name="第 1 页">
    <mxGraphModel dx="756" dy="2274" grid="1" gridSize="10" guides="1" tooltips="1" connect="1" arrows="1" fold="1" page="1" pageScale="1" pageWidth="827" pageHeight="1169" math="0" shadow="0">
      <root>
        <mxCell id="0" />
        <mxCell id="1" parent="0" />
      </root>
    </mxGraphModel>
  </diagram>
</mxfile>
